# xmcd
#
# Track frame offsets: 
#        150
#        14560
#        29961
#        49230
#        69746
#        85123
#        103842
#        128902
#        146058
#        158161
#        170509
#        194401
#        204401
#        219348
#        236911
#        254095
#        276430
#        291021
#        306829
#        327114
#        342923
#
# Disc length: 4799 seconds
#
# Revision: 1
# Processed by: cddbd v1.5.2PL0 Copyright (c) Steve Scherf et al.
# Submitted via: ExactAudioCopy v0.95b3
#
DISCID=5312bd15
DTITLE=Шанхай и Евгений Маргулис - Звездная Серия
DYEAR=2000
DGENRE=
TTITLE0=Подожди
TTITLE1=Дороги наши разошлись
TTITLE2=Вспомни
TTITLE3=Жаль
TTITLE4=Баркас
TTITLE5=Баобаб
TTITLE6=Листья
TTITLE7=Путь
TTITLE8=Люди могут летать
TTITLE9=Стена
TTITLE10=Мечта
TTITLE11=До свидания, друг
TTITLE12=Да и нет
TTITLE13=Джаз
TTITLE14=Земляничные поляны
TTITLE15=Когда ты уйдешь
TTITLE16=Я еду по дороге
TTITLE17=Снег
TTITLE18=40 лет
TTITLE19=Подруга номер 5
TTITLE20=Последняя
EXTD=
EXTT0=
EXTT1=
EXTT2=
EXTT3=
EXTT4=
EXTT5=
EXTT6=
EXTT7=
EXTT8=
EXTT9=
EXTT10=
EXTT11=
EXTT12=
EXTT13=
EXTT14=
EXTT15=
EXTT16=
EXTT17=
EXTT18=
EXTT19=
EXTT20=
PLAYORDER=
